# xmcd
#
# Track frame offsets:
#	150
#	17664
#	35333
#	47409
#	72131
#	87120
#
# Disc length: 1373 seconds
# Revision: 0
# Processed by: cddbd v1.5.2PL0 Copyright (c) Steve Scherf et al.
# Submitted via: dBpowerAMP V12.0
#
DISCID=3c055b06
DTITLE=The Scarlet Furies - Dark Clad Company
DYEAR=2010
DGENRE=Country
TTITLE0=Gone Tomorrow
TTITLE1=All or Nothing
TTITLE2=Young Goodman Brown
TTITLE3=Safe In Arms
TTITLE4=Heart-Shaped Box
TTITLE5=Canyon
EXTD=
EXTT0=
EXTT1=
EXTT2=
EXTT3=
EXTT4=
EXTT5=
PLAYORDER=
